#usda 1.0
(
    metersPerUnit = 1
    upAxis = "Z"
)

def Mesh "geometry"
{
    int[] faceVertexCounts = [3, 3, 3, 3, 3, 3, 3, 3, 3, 3, 3, 3, 3, 3, 3, 3, 3, 3, 3, 3, 3, 3, 3, 3, 3, 3, 3, 3, 3, 3, 3, 3, 3, 3, 3, 3, 3, 3, 3, 3, 3, 3, 3, 3, 3, 3, 3, 3, 3, 3, 3, 3, 3, 3, 3, 3, 3, 3, 3, 3, 3, 3, 3, 3, 3, 3, 3, 3, 3, 3, 3, 3, 3, 3, 3, 3, 3, 3, 3, 3, 3, 3, 3, 3, 3, 3, 3, 3, 3, 3, 3, 3, 3, 3, 3, 3, 3, 3, 3, 3, 3, 3, 3, 3, 3, 3, 3, 3, 3, 3, 3, 3, 3, 3, 3, 3, 3, 3, 3, 3, 3, 3, 3, 3, 3, 3, 3, 3, 3, 3, 3, 3, 3, 3, 3, 3, 3, 3, 3, 3, 3, 3, 3, 3, 3, 3, 3, 3, 3, 3, 3, 3, 3, 3, 3, 3, 3, 3, 3, 3, 3, 3, 3, 3, 3, 3, 3, 3, 3, 3, 3, 3, 3, 3, 3, 3, 3, 3, 3, 3, 3, 3, 3, 3, 3, 3, 3, 3, 3, 3, 3, 3, 3, 3, 3, 3, 3, 3, 3, 3, 3, 3, 3, 3, 3, 3, 3, 3, 3, 3, 3, 3, 3, 3, 3, 3, 3, 3, 3, 3, 3, 3, 3, 3, 3, 3, 3, 3, 3, 3, 3, 3, 3, 3, 3, 3, 3, 3, 3, 3, 3, 3, 3, 3, 3, 3, 3, 3, 3, 3, 3, 3, 3, 3, 3, 3, 3, 3, 3, 3, 3, 3, 3, 3, 3, 3, 3, 3, 3, 3, 3, 3, 3, 3, 3, 3, 3, 3, 3, 3, 3, 3, 3, 3, 3, 3, 3, 3, 3, 3, 3, 3, 3, 3, 3, 3, 3, 3, 3, 3, 3, 3, 3, 3, 3, 3, 3, 3, 3, 3, 3, 3, 3, 3, 3, 3, 3, 3, 3, 3, 3, 3, 3, 3, 3, 3, 3, 3, 3, 3, 3, 3, 3, 3, 3, 3, 3, 3, 3, 3, 3, 3, 3, 3, 3, 3, 3, 3, 3, 3, 3, 3, 3, 3, 3, 3, 3, 3, 3, 3, 3, 3, 3, 3, 3, 3, 3, 3, 3, 3, 3, 3, 3, 3, 3, 3, 3, 3, 3, 3, 3, 3, 3, 3, 3, 3, 3, 3, 3, 3, 3, 3, 3, 3, 3, 3, 3, 3, 3, 3, 3, 3, 3, 3, 3, 3, 3, 3]
    int[] faceVertexIndices = [1, 3, 0, 4, 1, 0, 0, 3, 2, 2, 4, 0, 1, 7, 3, 5, 1, 4, 5, 7, 1, 3, 7, 2, 6, 4, 2, 2, 7, 6, 6, 5, 4, 7, 5, 6, 9, 11, 8, 12, 9, 8, 8, 11, 10, 10, 12, 8, 9, 15, 11, 13, 9, 12, 13, 15, 9, 11, 15, 10, 14, 12, 10, 10, 15, 14, 14, 13, 12, 15, 13, 14, 17, 16, 20, 17, 20, 18, 18, 20, 21, 18, 21, 19, 20, 16, 22, 20, 22, 21, 21, 22, 23, 21, 23, 19, 22, 16, 24, 22, 24, 23, 23, 24, 25, 23, 25, 19, 24, 16, 26, 24, 26, 25, 25, 26, 27, 25, 27, 19, 26, 16, 28, 26, 28, 27, 27, 28, 29, 27, 29, 19, 28, 16, 30, 28, 30, 29, 29, 30, 31, 29, 31, 19, 30, 16, 32, 30, 32, 31, 31, 32, 33, 31, 33, 19, 32, 16, 34, 32, 34, 33, 33, 34, 35, 33, 35, 19, 34, 16, 36, 34, 36, 35, 35, 36, 37, 35, 37, 19, 36, 16, 38, 36, 38, 37, 37, 38, 39, 37, 39, 19, 38, 16, 40, 38, 40, 39, 39, 40, 41, 39, 41, 19, 40, 16, 42, 40, 42, 41, 41, 42, 43, 41, 43, 19, 42, 16, 44, 42, 44, 43, 43, 44, 45, 43, 45, 19, 44, 16, 46, 44, 46, 45, 45, 46, 47, 45, 47, 19, 46, 16, 48, 46, 48, 47, 47, 48, 49, 47, 49, 19, 48, 16, 50, 48, 50, 49, 49, 50, 51, 49, 51, 19, 50, 16, 52, 50, 52, 51, 51, 52, 53, 51, 53, 19, 52, 16, 54, 52, 54, 53, 53, 54, 55, 53, 55, 19, 54, 16, 56, 54, 56, 55, 55, 56, 57, 55, 57, 19, 56, 16, 58, 56, 58, 57, 57, 58, 59, 57, 59, 19, 58, 16, 60, 58, 60, 59, 59, 60, 61, 59, 61, 19, 60, 16, 62, 60, 62, 61, 61, 62, 63, 61, 63, 19, 62, 16, 64, 62, 64, 63, 63, 64, 65, 63, 65, 19, 64, 16, 17, 64, 17, 65, 65, 17, 18, 65, 18, 19, 67, 66, 70, 67, 70, 68, 68, 70, 71, 68, 71, 69, 70, 66, 72, 70, 72, 71, 71, 72, 73, 71, 73, 69, 72, 66, 74, 72, 74, 73, 73, 74, 75, 73, 75, 69, 74, 66, 76, 74, 76, 75, 75, 76, 77, 75, 77, 69, 76, 66, 78, 76, 78, 77, 77, 78, 79, 77, 79, 69, 78, 66, 80, 78, 80, 79, 79, 80, 81, 79, 81, 69, 80, 66, 82, 80, 82, 81, 81, 82, 83, 81, 83, 69, 82, 66, 84, 82, 84, 83, 83, 84, 85, 83, 85, 69, 84, 66, 86, 84, 86, 85, 85, 86, 87, 85, 87, 69, 86, 66, 88, 86, 88, 87, 87, 88, 89, 87, 89, 69, 88, 66, 90, 88, 90, 89, 89, 90, 91, 89, 91, 69, 90, 66, 92, 90, 92, 91, 91, 92, 93, 91, 93, 69, 92, 66, 94, 92, 94, 93, 93, 94, 95, 93, 95, 69, 94, 66, 96, 94, 96, 95, 95, 96, 97, 95, 97, 69, 96, 66, 98, 96, 98, 97, 97, 98, 99, 97, 99, 69, 98, 66, 100, 98, 100, 99, 99, 100, 101, 99, 101, 69, 100, 66, 102, 100, 102, 101, 101, 102, 103, 101, 103, 69, 102, 66, 104, 102, 104, 103, 103, 104, 105, 103, 105, 69, 104, 66, 106, 104, 106, 105, 105, 106, 107, 105, 107, 69, 106, 66, 108, 106, 108, 107, 107, 108, 109, 107, 109, 69, 108, 66, 110, 108, 110, 109, 109, 110, 111, 109, 111, 69, 110, 66, 112, 110, 112, 111, 111, 112, 113, 111, 113, 69, 112, 66, 114, 112, 114, 113, 113, 114, 115, 113, 115, 69, 114, 66, 67, 114, 67, 115, 115, 67, 68, 115, 68, 69, 117, 116, 120, 117, 120, 118, 118, 120, 121, 118, 121, 119, 120, 116, 122, 120, 122, 121, 121, 122, 123, 121, 123, 119, 122, 116, 124, 122, 124, 123, 123, 124, 125, 123, 125, 119, 124, 116, 126, 124, 126, 125, 125, 126, 127, 125, 127, 119, 126, 116, 128, 126, 128, 127, 127, 128, 129, 127, 129, 119, 128, 116, 130, 128, 130, 129, 129, 130, 131, 129, 131, 119, 130, 116, 132, 130, 132, 131, 131, 132, 133, 131, 133, 119, 132, 116, 134, 132, 134, 133, 133, 134, 135, 133, 135, 119, 134, 116, 136, 134, 136, 135, 135, 136, 137, 135, 137, 119, 136, 116, 138, 136, 138, 137, 137, 138, 139, 137, 139, 119, 138, 116, 140, 138, 140, 139, 139, 140, 141, 139, 141, 119, 140, 116, 142, 140, 142, 141, 141, 142, 143, 141, 143, 119, 142, 116, 144, 142, 144, 143, 143, 144, 145, 143, 145, 119, 144, 116, 146, 144, 146, 145, 145, 146, 147, 145, 147, 119, 146, 116, 148, 146, 148, 147, 147, 148, 149, 147, 149, 119, 148, 116, 150, 148, 150, 149, 149, 150, 151, 149, 151, 119, 150, 116, 152, 150, 152, 151, 151, 152, 153, 151, 153, 119, 152, 116, 154, 152, 154, 153, 153, 154, 155, 153, 155, 119, 154, 116, 156, 154, 156, 155, 155, 156, 157, 155, 157, 119, 156, 116, 158, 156, 158, 157, 157, 158, 159, 157, 159, 119, 158, 116, 160, 158, 160, 159, 159, 160, 161, 159, 161, 119, 160, 116, 162, 160, 162, 161, 161, 162, 163, 161, 163, 119, 162, 116, 164, 162, 164, 163, 163, 164, 165, 163, 165, 119, 164, 116, 117, 164, 117, 165, 165, 117, 118, 165, 118, 119, 167, 166, 170, 167, 170, 168, 168, 170, 171, 168, 171, 169, 170, 166, 172, 170, 172, 171, 171, 172, 173, 171, 173, 169, 172, 166, 174, 172, 174, 173, 173, 174, 175, 173, 175, 169, 174, 166, 176, 174, 176, 175, 175, 176, 177, 175, 177, 169, 176, 166, 178, 176, 178, 177, 177, 178, 179, 177, 179, 169, 178, 166, 180, 178, 180, 179, 179, 180, 181, 179, 181, 169, 180, 166, 182, 180, 182, 181, 181, 182, 183, 181, 183, 169, 182, 166, 184, 182, 184, 183, 183, 184, 185, 183, 185, 169, 184, 166, 186, 184, 186, 185, 185, 186, 187, 185, 187, 169, 186, 166, 188, 186, 188, 187, 187, 188, 189, 187, 189, 169, 188, 166, 190, 188, 190, 189, 189, 190, 191, 189, 191, 169, 190, 166, 192, 190, 192, 191, 191, 192, 193, 191, 193, 169, 192, 166, 194, 192, 194, 193, 193, 194, 195, 193, 195, 169, 194, 166, 196, 194, 196, 195, 195, 196, 197, 195, 197, 169, 196, 166, 198, 196, 198, 197, 197, 198, 199, 197, 199, 169, 198, 166, 200, 198, 200, 199, 199, 200, 201, 199, 201, 169, 200, 166, 202, 200, 202, 201, 201, 202, 203, 201, 203, 169, 202, 166, 204, 202, 204, 203, 203, 204, 205, 203, 205, 169, 204, 166, 206, 204, 206, 205, 205, 206, 207, 205, 207, 169, 206, 166, 208, 206, 208, 207, 207, 208, 209, 207, 209, 169, 208, 166, 210, 208, 210, 209, 209, 210, 211, 209, 211, 169, 210, 166, 212, 210, 212, 211, 211, 212, 213, 211, 213, 169, 212, 166, 214, 212, 214, 213, 213, 214, 215, 213, 215, 169, 214, 166, 167, 214, 167, 215, 215, 167, 168, 215, 168, 169]
    point3f[] points = [(-0.8, -0.55, 0.3), (-0.8, -0.55, 0.75), (-0.8, 0.55, 0.3), (-0.8, 0.55, 0.75), (0.8, -0.55, 0.3), (0.8, -0.55, 0.75), (0.8, 0.55, 0.3), (0.8, 0.55, 0.75), (0.36, -0.09, 0.75), (0.36, -0.09, 1.45), (0.36, 0.09, 0.75), (0.36, 0.09, 1.45), (0.54, -0.09, 0.75), (0.54, -0.09, 1.45), (0.54, 0.09, 0.75), (0.54, 0.09, 1.45), (0.55, 0.71, 0.3), (0.85, 0.71, 0.3), (0.85, 0.53, 0.3), (0.55, 0.53, 0.3), (0.83977777, 0.71, 0.3776457), (0.83977777, 0.53, 0.3776457), (0.8098076, 0.71, 0.45), (0.8098076, 0.53, 0.45), (0.76213205, 0.71, 0.51213205), (0.76213205, 0.53, 0.51213205), (0.7, 0.71, 0.5598076), (0.7, 0.53, 0.5598076), (0.62764573, 0.71, 0.58977777), (0.62764573, 0.53, 0.58977777), (0.55, 0.71, 0.6), (0.55, 0.53, 0.6), (0.4723543, 0.71, 0.58977777), (0.4723543, 0.53, 0.58977777), (0.4, 0.71, 0.5598076), (0.4, 0.53, 0.5598076), (0.33786798, 0.71, 0.51213205), (0.33786798, 0.53, 0.51213205), (0.29019237, 0.71, 0.45), (0.29019237, 0.53, 0.45), (0.26022226, 0.71, 0.3776457), (0.26022226, 0.53, 0.3776457), (0.25, 0.71, 0.3), (0.25, 0.53, 0.3), (0.26022226, 0.71, 0.2223543), (0.26022226, 0.53, 0.2223543), (0.29019237, 0.71, 0.15), (0.29019237, 0.53, 0.15), (0.33786798, 0.71, 0.08786797), (0.33786798, 0.53, 0.08786797), (0.4, 0.71, 0.04019238), (0.4, 0.53, 0.04019238), (0.4723543, 0.71, 0.010222252), (0.4723543, 0.53, 0.010222252), (0.55, 0.71, 0), (0.55, 0.53, 0), (0.62764573, 0.71, 0.010222252), (0.62764573, 0.53, 0.010222252), (0.7, 0.71, 0.04019238), (0.7, 0.53, 0.04019238), (0.76213205, 0.71, 0.08786797), (0.76213205, 0.53, 0.08786797), (0.8098076, 0.71, 0.15), (0.8098076, 0.53, 0.15), (0.83977777, 0.71, 0.2223543), (0.83977777, 0.53, 0.2223543), (0.55, -0.53, 0.3), (0.85, -0.53, 0.3), (0.85, -0.71, 0.3), (0.55, -0.71, 0.3), (0.83977777, -0.53, 0.3776457), (0.83977777, -0.71, 0.3776457), (0.8098076, -0.53, 0.45), (0.8098076, -0.71, 0.45), (0.76213205, -0.53, 0.51213205), (0.76213205, -0.71, 0.51213205), (0.7, -0.53, 0.5598076), (0.7, -0.71, 0.5598076), (0.62764573, -0.53, 0.58977777), (0.62764573, -0.71, 0.58977777), (0.55, -0.53, 0.6), (0.55, -0.71, 0.6), (0.4723543, -0.53, 0.58977777), (0.4723543, -0.71, 0.58977777), (0.4, -0.53, 0.5598076), (0.4, -0.71, 0.5598076), (0.33786798, -0.53, 0.51213205), (0.33786798, -0.71, 0.51213205), (0.29019237, -0.53, 0.45), (0.29019237, -0.71, 0.45), (0.26022226, -0.53, 0.3776457), (0.26022226, -0.71, 0.3776457), (0.25, -0.53, 0.3), (0.25, -0.71, 0.3), (0.26022226, -0.53, 0.2223543), (0.26022226, -0.71, 0.2223543), (0.29019237, -0.53, 0.15), (0.29019237, -0.71, 0.15), (0.33786798, -0.53, 0.08786797), (0.33786798, -0.71, 0.08786797), (0.4, -0.53, 0.04019238), (0.4, -0.71, 0.04019238), (0.4723543, -0.53, 0.010222252), (0.4723543, -0.71, 0.010222252), (0.55, -0.53, 0), (0.55, -0.71, 0), (0.62764573, -0.53, 0.010222252), (0.62764573, -0.71, 0.010222252), (0.7, -0.53, 0.04019238), (0.7, -0.71, 0.04019238), (0.76213205, -0.53, 0.08786797), (0.76213205, -0.71, 0.08786797), (0.8098076, -0.53, 0.15), (0.8098076, -0.71, 0.15), (0.83977777, -0.53, 0.2223543), (0.83977777, -0.71, 0.2223543), (-0.55, 0.71, 0.3), (-0.25, 0.71, 0.3), (-0.25, 0.53, 0.3), (-0.55, 0.53, 0.3), (-0.26022226, 0.71, 0.3776457), (-0.26022226, 0.53, 0.3776457), (-0.29019237, 0.71, 0.45), (-0.29019237, 0.53, 0.45), (-0.33786798, 0.71, 0.51213205), (-0.33786798, 0.53, 0.51213205), (-0.4, 0.71, 0.5598076), (-0.4, 0.53, 0.5598076), (-0.4723543, 0.71, 0.58977777), (-0.4723543, 0.53, 0.58977777), (-0.55, 0.71, 0.6), (-0.55, 0.53, 0.6), (-0.62764573, 0.71, 0.58977777), (-0.62764573, 0.53, 0.58977777), (-0.7, 0.71, 0.5598076), (-0.7, 0.53, 0.5598076), (-0.76213205, 0.71, 0.51213205), (-0.76213205, 0.53, 0.51213205), (-0.8098076, 0.71, 0.45), (-0.8098076, 0.53, 0.45), (-0.83977777, 0.71, 0.3776457), (-0.83977777, 0.53, 0.3776457), (-0.85, 0.71, 0.3), (-0.85, 0.53, 0.3), (-0.83977777, 0.71, 0.2223543), (-0.83977777, 0.53, 0.2223543), (-0.8098076, 0.71, 0.15), (-0.8098076, 0.53, 0.15), (-0.76213205, 0.71, 0.08786797), (-0.76213205, 0.53, 0.08786797), (-0.7, 0.71, 0.04019238), (-0.7, 0.53, 0.04019238), (-0.62764573, 0.71, 0.010222252), (-0.62764573, 0.53, 0.010222252), (-0.55, 0.71, 0), (-0.55, 0.53, 0), (-0.4723543, 0.71, 0.010222252), (-0.4723543, 0.53, 0.010222252), (-0.4, 0.71, 0.04019238), (-0.4, 0.53, 0.04019238), (-0.33786798, 0.71, 0.08786797), (-0.33786798, 0.53, 0.08786797), (-0.29019237, 0.71, 0.15), (-0.29019237, 0.53, 0.15), (-0.26022226, 0.71, 0.2223543), (-0.26022226, 0.53, 0.2223543), (-0.55, -0.53, 0.3), (-0.25, -0.53, 0.3), (-0.25, -0.71, 0.3), (-0.55, -0.71, 0.3), (-0.26022226, -0.53, 0.3776457), (-0.26022226, -0.71, 0.3776457), (-0.29019237, -0.53, 0.45), (-0.29019237, -0.71, 0.45), (-0.33786798, -0.53, 0.51213205), (-0.33786798, -0.71, 0.51213205), (-0.4, -0.53, 0.5598076), (-0.4, -0.71, 0.5598076), (-0.4723543, -0.53, 0.58977777), (-0.4723543, -0.71, 0.58977777), (-0.55, -0.53, 0.6), (-0.55, -0.71, 0.6), (-0.62764573, -0.53, 0.58977777), (-0.62764573, -0.71, 0.58977777), (-0.7, -0.53, 0.5598076), (-0.7, -0.71, 0.5598076), (-0.76213205, -0.53, 0.51213205), (-0.76213205, -0.71, 0.51213205), (-0.8098076, -0.53, 0.45), (-0.8098076, -0.71, 0.45), (-0.83977777, -0.53, 0.3776457), (-0.83977777, -0.71, 0.3776457), (-0.85, -0.53, 0.3), (-0.85, -0.71, 0.3), (-0.83977777, -0.53, 0.2223543), (-0.83977777, -0.71, 0.2223543), (-0.8098076, -0.53, 0.15), (-0.8098076, -0.71, 0.15), (-0.76213205, -0.53, 0.08786797), (-0.76213205, -0.71, 0.08786797), (-0.7, -0.53, 0.04019238), (-0.7, -0.71, 0.04019238), (-0.62764573, -0.53, 0.010222252), (-0.62764573, -0.71, 0.010222252), (-0.55, -0.53, 0), (-0.55, -0.71, 0), (-0.4723543, -0.53, 0.010222252), (-0.4723543, -0.71, 0.010222252), (-0.4, -0.53, 0.04019238), (-0.4, -0.71, 0.04019238), (-0.33786798, -0.53, 0.08786797), (-0.33786798, -0.71, 0.08786797), (-0.29019237, -0.53, 0.15), (-0.29019237, -0.71, 0.15), (-0.26022226, -0.53, 0.2223543), (-0.26022226, -0.71, 0.2223543)]
}

