#usda 1.0
(
    metersPerUnit = 1
    upAxis = "Z"
)

def Mesh "geometry"
{
    int[] faceVertexCounts = [3, 3, 3, 3, 3, 3, 3, 3, 3, 3, 3, 3, 3, 3, 3, 3, 3, 3, 3, 3, 3, 3, 3, 3, 3, 3, 3, 3, 3, 3, 3, 3, 3, 3, 3, 3, 3, 3, 3, 3, 3, 3, 3, 3, 3, 3, 3, 3, 3, 3, 3, 3, 3, 3, 3, 3, 3, 3, 3, 3, 3, 3, 3, 3, 3, 3, 3, 3, 3, 3, 3, 3, 3, 3, 3, 3, 3, 3, 3, 3, 3, 3, 3, 3, 3, 3, 3, 3, 3, 3, 3, 3, 3, 3, 3, 3, 3, 3, 3, 3, 3, 3, 3, 3, 3, 3, 3, 3, 3, 3, 3, 3, 3, 3, 3, 3]
    int[] faceVertexIndices = [10, 11, 3, 3, 11, 12, 40, 1, 39, 1, 38, 39, 1, 35, 36, 2, 24, 23, 25, 24, 2, 4, 48, 47, 0, 48, 4, 0, 53, 52, 9, 3, 8, 9, 10, 3, 13, 7, 3, 3, 12, 13, 14, 7, 13, 5, 34, 35, 5, 35, 1, 37, 38, 1, 1, 36, 37, 21, 2, 22, 2, 23, 22, 26, 2, 6, 26, 25, 2, 6, 27, 26, 51, 0, 52, 51, 50, 0, 48, 0, 49, 0, 50, 49, 3, 2, 21, 3, 21, 8, 2, 3, 7, 6, 2, 7, 15, 16, 28, 28, 16, 29, 46, 28, 59, 15, 28, 46, 46, 59, 58, 58, 45, 46, 8, 21, 33, 33, 20, 8, 47, 6, 4, 47, 27, 6, 40, 53, 0, 0, 1, 40, 14, 34, 5, 5, 7, 14, 1, 0, 5, 5, 0, 4, 6, 7, 5, 4, 6, 5, 18, 19, 32, 32, 31, 18, 19, 20, 32, 20, 33, 32, 18, 31, 30, 30, 17, 18, 29, 16, 30, 16, 17, 30, 55, 54, 41, 41, 42, 55, 41, 53, 40, 41, 54, 53, 43, 56, 55, 55, 42, 43, 58, 59, 49, 49, 28, 29, 52, 53, 49, 49, 33, 21, 49, 54, 55, 49, 26, 27, 31, 32, 49, 29, 30, 49, 49, 57, 58, 21, 22, 49, 59, 28, 49, 27, 47, 49, 55, 56, 49, 49, 23, 24, 24, 25, 49, 49, 47, 48, 49, 32, 33, 49, 30, 31, 53, 54, 49, 56, 57, 49, 49, 22, 23, 25, 26, 49, 49, 51, 52, 50, 51, 49, 44, 16, 15, 15, 46, 44, 18, 17, 44, 8, 20, 44, 44, 19, 18, 44, 34, 14, 44, 9, 8, 44, 36, 35, 44, 20, 19, 14, 13, 44, 38, 37, 44, 40, 39, 44, 11, 10, 44, 44, 12, 11, 35, 34, 44, 44, 46, 45, 44, 39, 38, 44, 41, 40, 10, 9, 44, 44, 13, 12, 44, 17, 16, 42, 41, 44, 44, 37, 36, 44, 43, 42, 44, 45, 58, 58, 57, 44, 44, 57, 56, 56, 43, 44]
    point3f[] points = [(-0.8, -0.55, 0.75), (-0.8, 0.55, 0.75), (0.8, -0.55, 0.75), (0.8, 0.55, 0.75), (0.36, -0.09, 1.45), (0.36, 0.09, 1.45), (0.54, -0.09, 1.45), (0.54, 0.09, 1.45), (0.85, 0.71, 0.3), (0.83977777, 0.71, 0.3776457), (0.8098076, 0.71, 0.45), (0.76213205, 0.71, 0.51213205), (0.7, 0.71, 0.5598076), (0.62764573, 0.71, 0.58977777), (0.55, 0.71, 0.6), (0.55, 0.71, 0), (0.62764573, 0.71, 0.010222252), (0.7, 0.71, 0.04019238), (0.76213205, 0.71, 0.08786797), (0.8098076, 0.71, 0.15), (0.83977777, 0.71, 0.2223543), (0.85, -0.71, 0.3), (0.83977777, -0.71, 0.3776457), (0.8098076, -0.71, 0.45), (0.76213205, -0.71, 0.51213205), (0.7, -0.71, 0.5598076), (0.62764573, -0.71, 0.58977777), (0.55, -0.71, 0.6), (0.55, -0.71, 0), (0.62764573, -0.71, 0.010222252), (0.7, -0.71, 0.04019238), (0.76213205, -0.71, 0.08786797), (0.8098076, -0.71, 0.15), (0.83977777, -0.71, 0.2223543), (-0.55, 0.71, 0.6), (-0.62764573, 0.71, 0.58977777), (-0.7, 0.71, 0.5598076), (-0.76213205, 0.71, 0.51213205), (-0.8098076, 0.71, 0.45), (-0.83977777, 0.71, 0.3776457), (-0.85, 0.71, 0.3), (-0.83977777, 0.71, 0.2223543), (-0.8098076, 0.71, 0.15), (-0.76213205, 0.71, 0.08786797), (-0.7, 0.71, 0.04019238), (-0.62764573, 0.71, 0.010222252), (-0.55, 0.71, 0), (-0.55, -0.71, 0.6), (-0.62764573, -0.71, 0.58977777), (-0.7, -0.71, 0.5598076), (-0.76213205, -0.71, 0.51213205), (-0.8098076, -0.71, 0.45), (-0.83977777, -0.71, 0.3776457), (-0.85, -0.71, 0.3), (-0.83977777, -0.71, 0.2223543), (-0.8098076, -0.71, 0.15), (-0.76213205, -0.71, 0.08786797), (-0.7, -0.71, 0.04019238), (-0.62764573, -0.71, 0.010222252), (-0.55, -0.71, 0)]
}

